# xmcd
#
# Track frame offsets:
#	150
#	13990
#	27880
#	39737
#	53817
#	64067
#	76465
#	89412
#	104325
#	116342
#	131967
#	141395
#
# Disc length: 2029 seconds
#
# Revision: 2
# Processed by: cddbd v1.5.1PL0 Copyright (c) Steve Scherf et al.
# Submitted via: audiograbber 1.83.01
#
DISCID=aa07eb0c
DTITLE=Wilma Goich - I grandi successi originali - CD 2
DYEAR=2001
DGENRE=Pop
TTITLE0=Dolcemente
TTITLE1=Per vedere quanto è grande il mondo
TTITLE2=Il profumo dell'erba
TTITLE3=Ho bisogno di vederti
TTITLE4=Se c'è una stella
TTITLE5=Finalmente
TTITLE6=Le formiche
TTITLE7=Piccolo fiore
TTITLE8=Baci, baci, baci
TTITLE9=Una volta nella vita
TTITLE10=Attenti all'amore
TTITLE11=Occhi innamorati
EXTD=
EXTT0=
EXTT1=
EXTT2=
EXTT3=
EXTT4=
EXTT5=
EXTT6=
EXTT7=
EXTT8=
EXTT9=
EXTT10=
EXTT11=
PLAYORDER=
